<svg xmlns="http://www.w3.org/2000/svg"  viewBox="0 0 100 100" width="100px" height="100px"><path d="M23.5,93C16.607,93,11,87.393,11,80.5v-57C11,16.607,16.607,11,23.5,11h57C87.393,11,93,16.607,93,23.5v57 C93,87.393,87.393,93,80.5,93H23.5z" opacity=".35"/><path fill="#f2f2f2" d="M21.5,91C14.607,91,9,85.393,9,78.5v-57C9,14.607,14.607,9,21.5,9h57C85.393,9,91,14.607,91,21.5v57 C91,85.393,85.393,91,78.5,91H21.5z"/><path fill="#707cc0" d="M15.5,78.5v-57c0-3.314,2.686-6,6-6h57c3.314,0,6,2.686,6,6v57c0,3.314-2.686,6-6,6h-57 C18.186,84.5,15.5,81.814,15.5,78.5z"/><path fill="#40396e" d="M78.5,86h-57c-4.136,0-7.5-3.364-7.5-7.5v-57c0-4.136,3.364-7.5,7.5-7.5h57 c4.136,0,7.5,3.364,7.5,7.5v57C86,82.636,82.636,86,78.5,86z M21.5,17c-2.481,0-4.5,2.019-4.5,4.5v57c0,2.481,2.019,4.5,4.5,4.5h57 c2.481,0,4.5-2.019,4.5-4.5v-57c0-2.481-2.019-4.5-4.5-4.5H21.5z"/><circle cx="33.855" cy="32.855" r="4.113" fill="#f2f2f2"/><circle cx="46.193" cy="32.855" r="5.484" fill="#f2f2f2"/><circle cx="61.958" cy="33.54" r="7.54" fill="#f2f2f2"/><path fill="#f2f2f2" d="M73,75l0-18.259c0-6.027-4.466-11.326-10.469-11.856C55.716,44.284,50,49.713,50,56.493V75H73z"/><path fill="#f2f2f2" d="M54,67V50.144c0-3.853-2.764-7.314-6.591-7.766C42.86,41.84,39,45.399,39,49.864V67H54z"/><g><path fill="#f2f2f2" d="M41,60l0-12.079c0-3.275-2.198-6.245-5.398-6.94C31.04,39.991,27,43.363,27,47.662V60H41z"/></g></svg>